<?xml version="1.0" encoding="utf-8"?>
<!-- Generator: Adobe Illustrator 17.0.0, SVG Export Plug-In . SVG Version: 6.00 Build 0)  -->
<!DOCTYPE svg PUBLIC "-//W3C//DTD SVG 1.1//EN" "http://www.w3.org/Graphics/SVG/1.1/DTD/svg11.dtd">
<svg xmlns="http://www.w3.org/2000/svg" xmlns:xlink="http://www.w3.org/1999/xlink" version="1.1" id="Layer_1" x="0px" y="0px" width="1750px" height="980px" viewBox="0 0 1750 980" enable-background="new 0 0 1750 980" xml:space="preserve">
<g>
	
	<rect y="259.8" fill-rule="evenodd" clip-rule="evenodd" fill="#FFFFB2" width="1750" height="720.2"/>
	<rect y="440.9" fill-rule="evenodd" clip-rule="evenodd" fill="#FFFFCF" width="1750" height="539.1"/>
</g>
<g>
	<g>
		<path fill-rule="evenodd" clip-rule="evenodd" fill="#FFFFFF" d="M0,351.6c23.5-6.5,35.6,3.7,42.2,21.9    c8.3-14.5,23.1-19.3,40.4-20.2c-33.1-98.8,104-88.8,92.6-10.1c31.4-22.9,95.3-7,124.7,23.6c36.9-14.9,79.7,24.1,84.2,53.9    c7.1-24.9,49.2-25.4,61-8.6c13.2-5,30.2,22.4,21.5,38.9c48.2-10.7,128.3-2,143.2,18.5H0V351.6z"/>
		<path fill-rule="evenodd" clip-rule="evenodd" fill="#FFCC99" d="M609.9,469.6c-36.9-17.1-92.1-19.4-163.8-8.4    c21.2-11.4,7.4-44.2-19.4-41.3c3.1,5.6,3.1,11.8,0,18.6c-12.7-7.4-34.2-1-39.6,6.7c-10.7-32.6-51.8-58.4-83.4-49.7    c-12.4-30.1-40.3-44.1-72.5-39.6c29.9,2.8,47.3,16.6,57.3,43.8c-29.9-28.8-118.3-22.4-141.5,8.4c-20.3-5.5-38.6,1.7-48,13.5    c7.6-16.3,20.7-24.7,37.9-27c4.8-16,11.8-31.7,29.5-45.5c3-16.3-10.4-54.7-33.7-51.4c12.7,3.6,17,39.9,12.6,53.9    c-19.7-4.1-34.5,8-37.1,21.1c-36.1-3.3-52,24.8-52.2,45.5c-8.8-6.2-24.5-3.4-35.4,6.8c10.9-4.4,20.7-1.3,23.6,3.4    c-16.8-4-32-1.4-44.3,12.6v28.6H609.9z"/>
	</g>
	<g>
		<path fill-rule="evenodd" clip-rule="evenodd" fill="#FFFFFF" d="M1750,214.1c-17.5-4.8-26.5,2.8-31.5,16.3    c-6.2-10.7-17.2-14.4-30.1-15.1c24.6-73.6-77.5-66.1-69-7.5c-23.4-17-71-5.3-92.9,17.6c-27.5-11.1-59.4,18-62.8,40.1    c-5.3-18.5-36.7-18.9-45.4-6.4c-9.9-3.7-22.5,16.7-16.1,29c-35.9-7.9-95.6-1.5-106.7,13.8H1750V214.1z"/>
		<path fill-rule="evenodd" clip-rule="evenodd" fill="#FFCC99" d="M1295.6,301.9c27.5-12.7,68.6-14.5,122.1-6.3    c-15.9-8.5-5.5-32.9,14.4-30.8c-2.3,4.2-2.3,8.8,0,13.8c9.4-5.5,25.5-0.7,29.5,5c8-24.3,38.6-43.5,62.1-37    c9.2-22.4,30-32.9,54-29.5c-22.2,2.1-35.2,12.3-42.7,32.6c22.3-21.5,88.2-16.7,105.5,6.3c15.1-4.1,28.7,1.3,35.8,10    c-5.7-12.1-15.4-18.3-28.2-20.1c-3.6-12-8.8-23.6-22-33.9c-2.2-12.1,7.7-40.7,25.1-38.3c-9.5,2.7-12.7,29.8-9.4,40.1    c14.7-3,25.7,6,27.6,15.7c26.9-2.5,38.8,18.5,38.9,33.9c6.5-4.6,18.3-2.6,26.4,5c-8.1-3.3-15.4-0.9-17.6,2.5c12.5-3,23.8-1,33,9.4    v21.3H1295.6z"/>
	</g>
	<g>
		<path fill-rule="evenodd" clip-rule="evenodd" fill="#FFFFFF" d="M1333.9,172.7c18.7-56.2-62.7-50.3-57.7-15.9    c-10.8-7.9-32.7-2.4-42.8,8.1c-24.2-22.4-64.5,15.2-57.2,28.9c-16.5-3.7-44-0.7-49.1,6.3h279.1    C1397.1,182.1,1368.1,167.3,1333.9,172.7L1333.9,172.7z"/>
		<path fill-rule="evenodd" clip-rule="evenodd" fill="#FFCC99" d="M1127,200.2c17.5-7.4,35.8-5.8,54.1-3.5    c5.3-13.1,17.1-24,30.9-20.4c-8.2,2-11.9,7.6-13.9,14.5c12.8-11.9,26.2-12.5,39.8-7.1c5-19.1,20.7-23.6,40.1-22.9    c6.9-13.1,26.7-19.6,34.9-11.1c0.2-2.6-3.5-5.4-7.1-6.2c22.6-4.6,30,21.2,24.1,34.9c33.6-0.5,63.1,2.8,76.1,21.7    C1313.1,200.2,1220.1,200.2,1127,200.2L1127,200.2z"/>
	</g>
	<g>
		<path fill-rule="evenodd" clip-rule="evenodd" fill="#FFFFFF" d="M479.6,351.9c18.7-56.1-62.7-50.2-57.7-15.9    c-10.8-7.8-32.7-2.4-42.8,8.1c-24.1-22.4-64.5,15.2-57.2,28.9c-16.5-3.6-44-0.7-49.1,6.4h279.1    C542.9,361.3,513.8,346.6,479.6,351.9L479.6,351.9z"/>
		<path fill-rule="evenodd" clip-rule="evenodd" fill="#FFCC99" d="M272.7,379.4c17.5-7.4,35.8-5.8,54.2-3.5    c5.2-13.1,17.1-24,30.9-20.4c-8.2,2-11.9,7.6-13.9,14.5c12.8-11.9,26.2-12.5,39.8-7.1c5-19.1,20.7-23.6,40.1-22.9    c6.9-13.1,26.7-19.6,34.9-11.1c0.2-2.6-3.5-5.3-7.1-6.2c22.5-4.6,30,21.2,24.1,34.9c33.6-0.5,63.1,2.8,76.1,21.7    C458.8,379.4,365.8,379.4,272.7,379.4L272.7,379.4z"/>
	</g>
	<g>
		<path fill-rule="evenodd" clip-rule="evenodd" fill="#FFFFFF" d="M245.1,114.3c12.6-37.9-42.3-34-39-10.7    c-7.3-5.3-22.1-1.6-28.9,5.5c-16.3-15.2-43.5,10.2-38.7,19.5c-11.1-2.5-29.7-0.5-33.1,4.3h188.4    C287.8,120.7,268.2,110.7,245.1,114.3L245.1,114.3z"/>
		<path fill-rule="evenodd" clip-rule="evenodd" fill="#FFCC99" d="M105.4,132.9c11.8-5,24.2-3.9,36.5-2.3    c3.5-8.8,11.6-16.2,20.9-13.8c-5.5,1.3-8,5.1-9.4,9.8c8.6-8.1,17.7-8.4,26.9-4.8c3.4-12.9,14-15.9,27.1-15.4    c4.7-8.9,18-13.2,23.6-7.5c0.1-1.8-2.3-3.6-4.8-4.2c15.2-3.1,20.3,14.3,16.3,23.5c22.7-0.3,42.6,1.9,51.4,14.7    C231,132.9,168.2,132.9,105.4,132.9L105.4,132.9z"/>
	</g>
</g>
<g>
	<path fill-rule="evenodd" clip-rule="evenodd" fill="#FFC28C" d="M0,613.6C222.6,584,277.7,481.5,369,481.5   c75.1,0,171.9,79.3,256.8,81.5c128.2,3.2,286.8-91.4,396.3-91.4c85,0,254.3,139.5,522.3,139.5c73.7,0,150.6-33.1,205.5-64.8V980H0   V613.6z"/>
	<path fill-rule="evenodd" clip-rule="evenodd" fill="#FFFFFF" d="M369,481.5c75.1,0,171.9,79.3,256.8,81.5   c-183.3,30.7-328.7,4-328.7-27.8C297.1,513.2,330.6,491.2,369,481.5L369,481.5z M1022.2,471.6c85,0,254.3,139.5,522.3,139.5   c-183.3,30.7-551-14.5-594.2-85.8C938.9,506.5,983.8,481.3,1022.2,471.6L1022.2,471.6z"/>
</g>
<g>
	<path fill-rule="evenodd" clip-rule="evenodd" fill="#F58866" d="M0,634c172.2-115.2,214.3-0.1,287.1-22.9   c450.9-140.8,499.1-20.5,696.4,26.6c368.3-50.4,506.9-180.6,766.5-28.4V980H0V634z"/>
	<path fill-rule="evenodd" clip-rule="evenodd" fill="#FFDF7D" d="M638.7,544.9c152,1.3,217.2,62.3,344.8,92.8   c-38.9,6.3-211.4,47.6-303.6,5.8C596.8,605.9,519.3,559.9,638.7,544.9L638.7,544.9z M1547.1,539.4c63.2,5.6,128,26,202.9,69.9v30.5   c-65.4,24.8-407.4,17-263-49.4C1527.4,571.8,1463.7,553.8,1547.1,539.4L1547.1,539.4z M126,582.4c74.8-6.1,110.6,44.5,161.1,28.7   c-65.4,24.8-152.9,43.3-194,24.7C73.2,626.8,80.2,592.5,126,582.4L126,582.4z"/>
</g>
<path fill-rule="evenodd" clip-rule="evenodd" fill="#C7503B" d="M0,666.6c140,0,255.4-48.2,367.5-48.2  c118.3,0,311.5,73.6,492.7,73.6c149-0.1,259.7-72.2,382.7-73.9c135.2-1.8,254.1,62.1,507.2,62.1V980H0V666.6z"/>
<g>
	<rect y="692" fill-rule="evenodd" clip-rule="evenodd" fill="#6B4D3B" width="1750" height="188.5"/>
	<rect y="867.9" fill-rule="evenodd" clip-rule="evenodd" fill="#FFFFFF" width="1750" height="7.1"/>
	<rect y="697.8" fill-rule="evenodd" clip-rule="evenodd" fill="#FFFFFF" width="1750" height="4.9"/>
	<path fill-rule="evenodd" clip-rule="evenodd" fill="#FFCE6B" d="M0,767.3h65.8v7.1H0V767.3z M1684.2,767.3h65.8v7.1h-65.8V767.3z    M1531.1,767.3h65.8v7.1h-65.8V767.3z M1378,767.3h65.8v7.1H1378V767.3z M1224.9,767.3h65.8v7.1h-65.8V767.3z M1071.8,767.3h65.8   v7.1h-65.8V767.3z M918.7,767.3h65.8v7.1h-65.8V767.3z M765.6,767.3h65.8v7.1h-65.8V767.3z M612.5,767.3h65.8v7.1h-65.8V767.3z    M459.3,767.3h65.8v7.1h-65.8V767.3z M306.2,767.3H372v7.1h-65.8V767.3z M153.1,767.3h65.8v7.1h-65.8V767.3z"/>
</g>
<g>
	<path fill-rule="evenodd" clip-rule="evenodd" fill="#473021" d="M1379.5,739.2c188.2,0,340.8,4.2,340.8,9.3   c0,5.1-152.6,9.2-340.8,9.2c-188.2,0-340.8-4.1-340.8-9.2C1038.7,743.4,1191.3,739.2,1379.5,739.2L1379.5,739.2z"/>
	<g>
		<path fill-rule="evenodd" clip-rule="evenodd" fill="#1A1A1A" d="M1082,693.1h197.9c0.9,7.9,7.6,14,15.6,14H1455    c2.9,3.5,7.2,5.7,12.1,5.7h161.3c8.6,0,15.8-7.1,15.8-15.8v-40.7c0-6.8-4.3-12.6-10.4-14.8v-4.9c0-8.6-7.1-15.8-15.7-15.8H1082    c-8.6,0-15.8,7.1-15.8,15.8v40.7C1066.2,686,1073.3,693.1,1082,693.1L1082,693.1z"/>
		<g>
			<path fill-rule="evenodd" clip-rule="evenodd" fill="#FFFFCC" d="M1229.6,700.2h231.1c14.3,0,21.3-31.7,26.4-36.8     c9.1-9,86-7.5,96.4,0c10.2,7.3,10.8,34.2,15.5,34.2h62.2c1.4-41.1,0.6-82.3-6.2-123.4c2.4-2.6,2.9-11-2.8-14     c-3.7-22.5-8.8-41-17-62.1c-2.9-28.2-11.9-34.9-46-34.9h-365.4c-44.6,0-124.3,2.1-130.9,28l-42,68.7c-6.7,1.5-10.1,6-10.9,12.7     c-10.1,2.4-10.8,51.7-9.1,97.2v28.8c22.3,7.7,55.5,6,79.6,6c6.9,0,16-37.2,29.3-50.5c8.4-8.4,57.9-6.2,63.5-0.5     C1221.7,671.9,1218.1,700.2,1229.6,700.2L1229.6,700.2z"/>
			<path fill-rule="evenodd" clip-rule="evenodd" fill="#FF6666" d="M1229.6,700.2h231.1c14.3,0,21.3-31.7,26.4-36.8     c9.1-9,86-7.5,96.4,0c10.2,7.3,10.8,34.2,15.5,34.2h62.2c1.4-41.1,0.6-82.3-6.2-123.4l-615-1.5c-10.1,2.4-10.8,51.7-9.1,97.2     v28.8c22.3,7.7,55.5,6,79.6,6c6.9,0,16-37.2,29.3-50.5c8.4-8.4,57.9-6.2,63.5-0.5C1221.7,671.9,1218.1,700.2,1229.6,700.2     L1229.6,700.2z"/>
		</g>
		<g>
			<path fill-rule="evenodd" clip-rule="evenodd" fill="#FFFFFF" d="M1655.1,574.2c2.4-2.6,2.9-11-2.8-14l-601.3-0.2     c-6.7,1.5-10.1,6-10.9,12.7L1655.1,574.2z"/>
			<path fill-rule="evenodd" clip-rule="evenodd" fill="#BDD3DE" d="M1653.5,573.1c2.4-1.3,3.2-5.6-1.2-7.3l-601.3-0.1     c-6.7,0.8-8.8,2.8-9.4,6.6L1653.5,573.1z"/>
		</g>
		<g>
			<path fill-rule="evenodd" clip-rule="evenodd" fill="#2F464D" d="M1092.9,491.3l-42,68.7c5.3,2.7,17.3,3.6,20.3-2.5     c9.2-18.3,18.3-36.3,24.6-55.6C1097,498.4,1095.6,494.4,1092.9,491.3L1092.9,491.3z"/>
			<path fill-rule="evenodd" clip-rule="evenodd" fill="#669999" d="M1091.2,494.1l-39,63.7c4,2,14,3,16.3-1.6     c9-18,18.2-36,24.5-55.2C1093.5,499.7,1092.7,495.7,1091.2,494.1L1091.2,494.1z"/>
		</g>
		<path fill-rule="evenodd" clip-rule="evenodd" fill="#333333" d="M1609.8,548.9h15.7c0.7,0,1.4,0.6,1.5,1.3l0.3,1.5    c0.1,0.7-0.3,1.3-1.1,1.3h-15.7c-0.7,0-1.4-0.6-1.5-1.3l-0.3-1.5C1608.6,549.5,1609.1,548.9,1609.8,548.9L1609.8,548.9z     M1599.5,502.5c5.9,0,16.8,0.1,17.5,2.8c0.2,0.7-0.3,1.3-1.1,1.3h-15.7c-0.7,0-1.4-0.6-1.5-1.3l-0.3-1.5    C1598.3,503.1,1598.7,502.5,1599.5,502.5L1599.5,502.5z M1601.3,508.5h15.7c0.7,0,1.4,0.6,1.5,1.3l0.3,1.6c0.1,0.7-0.4,1.3-1,1.3    h-15.7c-0.7,0-1.4-0.6-1.5-1.3l-0.3-1.6C1600.1,509.1,1600.6,508.5,1601.3,508.5L1601.3,508.5z M1602.9,514.3h15.7    c0.7,0,1.4,0.6,1.5,1.3l0.3,1.5c0.1,0.7-0.3,1.3-1,1.3h-15.7c-0.7,0-1.4-0.6-1.5-1.3l-0.3-1.5    C1601.7,514.9,1602.2,514.3,1602.9,514.3L1602.9,514.3z M1604.5,520.1h15.7c0.7,0,1.4,0.6,1.5,1.3l0.3,1.5c0.1,0.7-0.3,1.3-1,1.3    h-15.7c-0.7,0-1.4-0.6-1.5-1.3l-0.3-1.5C1603.3,520.6,1603.8,520.1,1604.5,520.1L1604.5,520.1z M1606.1,525.8h15.7    c0.7,0,1.4,0.6,1.6,1.3l0.3,1.6c0.1,0.7-0.3,1.3-1,1.3H1607c-0.7,0-1.4-0.6-1.6-1.3l-0.3-1.6    C1605,526.4,1605.4,525.8,1606.1,525.8L1606.1,525.8z M1607.6,531.6h15.7c0.7,0,1.4,0.6,1.5,1.3l0.3,1.6c0.1,0.7-0.3,1.3-1.1,1.3    h-15.7c-0.7,0-1.4-0.6-1.5-1.3l-0.3-1.6C1606.4,532.2,1606.8,531.6,1607.6,531.6L1607.6,531.6z M1608.7,537.4h15.7    c0.7,0,1.4,0.6,1.5,1.3l0.3,1.5c0.1,0.7-0.4,1.3-1.1,1.3h-15.7c-0.7,0-1.4-0.6-1.5-1.3l-0.3-1.5    C1607.5,538,1607.9,537.4,1608.7,537.4L1608.7,537.4z M1609.4,543.1h15.7c0.7,0,1.4,0.6,1.5,1.3l0.3,1.5c0.1,0.7-0.3,1.3-1.1,1.3    h-15.7c-0.7,0-1.4-0.6-1.5-1.3l-0.3-1.5C1608.2,543.7,1608.7,543.1,1609.4,543.1L1609.4,543.1z"/>
		<g>
			<path fill-rule="evenodd" clip-rule="evenodd" fill="#CF4444" d="M1660.6,622.4c2,0.6,4.6,1.7,5,3.8c1.5,6.5,1.6,37.1,0.9,40.8     c-0.4,2-2.1,4-4.7,5.6C1659.4,668.4,1658.4,632.5,1660.6,622.4L1660.6,622.4z"/>
			<path fill-rule="evenodd" clip-rule="evenodd" fill="#FFFFCC" d="M1631.9,680.9h29.9c5.2,0,9.5,4.3,9.5,9.5v6.3     c0,5.2-4.2,9.5-9.5,9.5h-29.9c-5.2,0-9.4-4.3-9.4-9.5v-6.3C1622.5,685.2,1626.7,680.9,1631.9,680.9L1631.9,680.9z"/>
			<path fill-rule="evenodd" clip-rule="evenodd" fill="#FFFFCC" d="M1031,680.9h11c5.2,0,9.4,4.3,9.4,9.5v6.3     c0,5.2-4.2,9.5-9.4,9.5h-11c-5.2,0-9.4-4.3-9.4-9.5v-6.3C1021.5,685.2,1025.8,680.9,1031,680.9L1031,680.9z"/>
			<path fill-rule="evenodd" clip-rule="evenodd" fill="#CF4444" d="M1037.1,581.7c-2,0.2-4.6,0.6-5.1,1.3     c-1.5,2.3-1.6,13.3-0.9,14.6c0.4,0.7,2.1,1.4,4.7,2C1038.3,598.1,1039.2,585.3,1037.1,581.7L1037.1,581.7z"/>
			<path fill-rule="evenodd" clip-rule="evenodd" fill="#1A1A1A" d="M1035.1,613.7c-9.7,1.8-9.8,29.4-1.3,32.8     C1036.3,643.7,1037.2,620.3,1035.1,613.7L1035.1,613.7z"/>
		</g>
		<g>
			<path fill-rule="evenodd" clip-rule="evenodd" fill="#FFFFFF" d="M1635.2,498.2c-2.9-28.2-11.9-34.9-46-34.9h-365.4     c-44.6,0-124.3,2.1-130.9,28L1635.2,498.2z"/>
			<path fill-rule="evenodd" clip-rule="evenodd" fill="#BDD3DE" d="M1107,481.4l525.3,7.2c-4.6-14.7-14.4-20-25.1-20.1     C1440.4,466.2,1149.1,458.4,1107,481.4L1107,481.4z"/>
		</g>
		<g>
			<path fill-rule="evenodd" clip-rule="evenodd" fill="#CF4444" d="M1211.6,590.7c5.4,0,9.8,3.1,9.8,6.9c0,3.9-4.4,7-9.8,7     s-9.8-3.1-9.8-7C1201.8,593.8,1206.2,590.7,1211.6,590.7L1211.6,590.7z"/>
			<path fill-rule="evenodd" clip-rule="evenodd" fill="#FFFFFF" d="M1199.9,596.2l27-1.5c2-0.1,2,6,0,5.9l-27-1.5     C1199,599.1,1199,596.2,1199.9,596.2L1199.9,596.2z"/>
			<path fill-rule="evenodd" clip-rule="evenodd" fill="#333333" d="M1224.8,596.8c0.7,0,1.3,0.4,1.3,0.9c0,0.5-0.6,0.9-1.3,0.9     c-0.7,0-1.2-0.4-1.2-0.9C1223.6,597.2,1224.2,596.8,1224.8,596.8L1224.8,596.8z"/>
		</g>
		<g>
			<path fill-rule="evenodd" clip-rule="evenodd" fill="#333333" d="M1171.6,657.6c26.6,0,48.2,21.6,48.2,48.2s-21.6,48.2-48.2,48.2     c-26.6,0-48.2-21.6-48.2-48.2S1145,657.6,1171.6,657.6L1171.6,657.6z"/>
			<path fill-rule="evenodd" clip-rule="evenodd" fill="#666666" d="M1171.6,673.4c17.9,0,32.4,14.5,32.4,32.4s-14.5,32.4-32.4,32.4     c-17.9,0-32.4-14.5-32.4-32.4S1153.7,673.4,1171.6,673.4L1171.6,673.4z"/>
			<path fill-rule="evenodd" clip-rule="evenodd" fill="#FFFFFF" d="M1171.6,677.4c15.6,0,28.3,12.7,28.3,28.4s-12.7,28.4-28.3,28.4     c-15.7,0-28.4-12.7-28.4-28.4S1155.9,677.4,1171.6,677.4L1171.6,677.4z"/>
			<path fill-rule="evenodd" clip-rule="evenodd" fill="#99CCCC" d="M1171.6,682.7c12.7,0,23.1,10.3,23.1,23.1s-10.3,23.1-23.1,23.1     c-12.7,0-23.1-10.3-23.1-23.1S1158.8,682.7,1171.6,682.7L1171.6,682.7z"/>
			<path fill-rule="evenodd" clip-rule="evenodd" fill="#FFFFFF" d="M1171.6,685.3c11.3,0,20.5,9.2,20.5,20.5s-9.2,0-20.5,0     c-11.4,0-20.5,11.3-20.5,0S1160.2,685.3,1171.6,685.3L1171.6,685.3z"/>
		</g>
		<g>
			<rect x="1211.1" y="436.8" fill-rule="evenodd" clip-rule="evenodd" fill="#FFFFFF" width="377.9" height="11.9"/>
			<rect x="1229.2" y="493.3" fill-rule="evenodd" clip-rule="evenodd" fill="#4D4D4D" width="21.1" height="5.5"/>
			<rect x="1409.1" y="493.3" fill-rule="evenodd" clip-rule="evenodd" fill="#4D4D4D" width="21" height="5.5"/>
			<rect x="1547.4" y="493.3" fill-rule="evenodd" clip-rule="evenodd" fill="#4D4D4D" width="21.1" height="5.5"/>
			<path fill-rule="evenodd" clip-rule="evenodd" fill="#333333" d="M1554.5,436.8h7v56.5h-7V436.8z M1236.2,436.8h7v56.5h-7V436.8z      M1416.1,436.8h7v56.5h-7V436.8z"/>
		</g>
		<path fill="#CF4444" d="M1417.6,498.7l1.5,61.4l0.8,13.5v126.6h-2.1V573.7l-0.8-13.5l-1.5-61.4L1417.6,498.7z M1064.4,572.4    c2-5.7,7.8-10.6,13.1-13.2c5.6-16.4,16.6-48.6,27.6-61.6h125.1v62.1c1.9,3.8,2.6,9.2,2.1,13.3l0,69.9h-86.6    c-19.7,0-30.4,51.1-42.6,51.1h-47.2C1046.4,670,1055.7,597.5,1064.4,572.4L1064.4,572.4z M1057.3,692.1h45.8    c10.1,0,21.6-51.1,42.6-51.1h84.5v-67.9c0.5-4.1-0.1-9.4-2.1-13.1v-60.3H1106c-11.1,13.6-21,43.8-26.8,61    c-5.1,2.5-10.9,6.8-12.8,12.4C1058.1,596.8,1048.8,668.6,1057.3,692.1L1057.3,692.1z"/>
		<g>
			<path fill-rule="evenodd" clip-rule="evenodd" fill="#333333" d="M1535.5,657.6c26.6,0,48.2,21.6,48.2,48.2s-21.6,48.2-48.2,48.2     c-26.6,0-48.2-21.6-48.2-48.2S1508.8,657.6,1535.5,657.6L1535.5,657.6z"/>
			<path fill-rule="evenodd" clip-rule="evenodd" fill="#666666" d="M1535.5,673.4c17.9,0,32.4,14.5,32.4,32.4s-14.5,32.4-32.4,32.4     c-17.9,0-32.4-14.5-32.4-32.4S1517.6,673.4,1535.5,673.4L1535.5,673.4z"/>
			<path fill-rule="evenodd" clip-rule="evenodd" fill="#FFFFFF" d="M1535.5,677.4c15.7,0,28.4,12.7,28.4,28.4s-12.7,28.4-28.4,28.4     c-15.6,0-28.4-12.7-28.4-28.4S1519.8,677.4,1535.5,677.4L1535.5,677.4z"/>
			<path fill-rule="evenodd" clip-rule="evenodd" fill="#99CCCC" d="M1535.5,682.7c12.7,0,23.1,10.3,23.1,23.1s-10.3,23.1-23.1,23.1     c-12.7,0-23.1-10.3-23.1-23.1S1522.7,682.7,1535.5,682.7L1535.5,682.7z"/>
			<path fill-rule="evenodd" clip-rule="evenodd" fill="#FFFFFF" d="M1535.5,685.3c11.3,0,20.5,9.2,20.5,20.5s-9.2,0-20.5,0     c-11.3,0-20.5,11.3-20.5,0S1524.1,685.3,1535.5,685.3L1535.5,685.3z"/>
		</g>
		<g>
			<path fill-rule="evenodd" clip-rule="evenodd" fill="#2F464D" d="M1115,504h98.5c3.8,0,7,3.1,7,7.5v35.9c0,5-2.6,9.2-7.8,9.2     l-119.6-0.1c-4,0-7-5.3-5.3-8.9l17.9-37.5C1107.3,506.8,1111.3,504,1115,504L1115,504z"/>
			<path fill-rule="evenodd" clip-rule="evenodd" fill="#669999" d="M1115,506.9c-2.6,0-5.6,2.2-6.7,4.6l-17.9,37.4     c-0.8,1.6,0.8,4.6,2.7,4.6l119.6,0.1c3.6,0,4.8-3,4.8-6.2v-35.9c0-2.4-1.5-4.6-4.1-4.6H1115z"/>
			<path fill-rule="evenodd" clip-rule="evenodd" fill="#A8EDED" d="M1140.4,506.9h8l-26.9,46.7h-8.1L1140.4,506.9z M1201,506.9h3.1     l-26.9,46.7h-3.1L1201,506.9z M1178.5,506.9h19.6l-26.9,46.7h-19.6L1178.5,506.9z"/>
		</g>
		<g>
			<path fill-rule="evenodd" clip-rule="evenodd" fill="#2F464D" d="M1254.4,504H1398c3.9,0,7,3.1,7,7.5v35.9c0,5-2.6,9.2-7.8,9.2     l-142.2-0.1c-4,0-6.5-3.2-6.5-8.9v-37.5C1248.4,506.5,1250.7,504,1254.4,504L1254.4,504z"/>
			<path fill-rule="evenodd" clip-rule="evenodd" fill="#669999" d="M1254.4,506.9c-2.1,0-3,1.2-3,3.3v37.5c0,2.4,0.6,5.9,3.6,5.9     l142.2,0.1c3.6,0,4.8-3,4.8-6.2v-35.9c0-2.4-1.5-4.6-4.1-4.6H1254.4z"/>
			<path fill-rule="evenodd" clip-rule="evenodd" fill="#A8EDED" d="M1321.8,506.9h8l-27,46.7h-8L1321.8,506.9z M1382.4,506.9h3.1     l-26.9,46.7h-3.1L1382.4,506.9z M1360,506.9h19.6l-26.9,46.7H1333L1360,506.9z"/>
		</g>
		<g>
			<path fill-rule="evenodd" clip-rule="evenodd" fill="#2F464D" d="M1432.2,504h143.6c7.2,0,14,7.8,15.4,17l4.1,26.4     c0.8,4.9-2.5,9.2-7.8,9.2l-154.8-0.1c-4,0-6.5-3.2-6.5-8.9v-37.5C1426.3,506.5,1428.5,504,1432.2,504L1432.2,504z"/>
			<path fill-rule="evenodd" clip-rule="evenodd" fill="#669999" d="M1432.2,506.9c-2.1,0-3,1.2-3,3.3v37.5c0,2.4,0.6,5.9,3.6,5.9     l154.8,0.1c3.3,0,5.4-2.5,4.9-5.8l-4.1-26.4c-0.6-3.8-2.3-7.6-4.8-10.4c-2-2.2-4.7-4.1-7.7-4.1H1432.2z"/>
			<path fill-rule="evenodd" clip-rule="evenodd" fill="#A8EDED" d="M1501.6,506.9h8l-27,46.7h-8L1501.6,506.9z M1562.1,506.9h3.1     l-27,46.7h-3.1L1562.1,506.9z M1539.7,506.9h19.6l-26.9,46.7h-19.6L1539.7,506.9z"/>
		</g>
		<g>
			<path fill-rule="evenodd" clip-rule="evenodd" fill="#666666" d="M1301.6,436.8h101.8c5.8,0,10.5-4.7,10.5-10.5v-17.6     c0-5.8-4.7-10.5-10.5-10.5h-101.8c-5.8,0-10.5,4.7-10.5,10.5v17.6C1291.1,432.1,1295.8,436.8,1301.6,436.8L1301.6,436.8z"/>
			<path fill-rule="evenodd" clip-rule="evenodd" fill="#FFFFFF" d="M1291.1,416.9H1414v-2.3h-122.9V416.9z M1291.1,420.6H1414v-2.3     h-122.9V420.6z"/>
		</g>
		<g>
			<path fill-rule="evenodd" clip-rule="evenodd" fill="#947466" d="M1425.4,436.8h101.8c5.8,0,10.5-4.7,10.5-10.5v-17.6     c0-5.8-4.7-10.5-10.5-10.5h-101.8c-5.8,0-10.5,4.7-10.5,10.5v17.6C1414.9,432.1,1419.6,436.8,1425.4,436.8L1425.4,436.8z"/>
			<path fill-rule="evenodd" clip-rule="evenodd" fill="#FFFFFF" d="M1414.9,416.9h122.8v-2.3h-122.8V416.9z M1414.9,420.6h122.8     v-2.3h-122.8V420.6z"/>
		</g>
	</g>
</g>
<g>
	<path fill-rule="evenodd" clip-rule="evenodd" fill="#F58866" d="M0,912.4c260.8,67.6,404.8-82.1,529.2-84.2   c116.6-2,225.1,71.8,397.5,78.5c186.4-26.1,240.9-57.7,336-57.7c147.8,0,259.9,82.1,487.3,82.1v49H0V912.4z"/>
	<path fill-rule="evenodd" clip-rule="evenodd" fill="#FFDF7D" d="M529.2,828.2c116.6-2,225.1,71.8,397.5,78.5   c-75.4,14.7-204.6,34.1-285.1,35.7C428.3,946.6,394,907.4,435,889.7C494.3,864.1,466.4,842.7,529.2,828.2L529.2,828.2z M0,912.4   c74.4,19.3,139.2,20.9,196.8,13.3l0.1,0C126.2,938.8,60.2,952.3,0,959.2V912.4z M1262.7,848.9c147.8,0,259.9,82.1,487.3,82.1v5.8   c-90.8,19-296.6,26.4-385.7,26.4c-213.4,0-268-38-214-57.5C1197.8,888.5,1206.6,858.2,1262.7,848.9L1262.7,848.9z"/>
</g>
</svg>
